<svg width="50" height="50" viewBox="0 0 50 50" fill="none" xmlns="http://www.w3.org/2000/svg">
<g clip-path="url(#clip0_11_93)">
<path d="M31.168 8.00005C30.6992 7.98833 30.2891 8.16801 30.0781 8.68755C29.7188 9.55864 30.6133 10.4102 30.9336 10.8555C31.1562 11.1641 31.4453 11.5118 31.6055 11.8594C31.7109 12.0899 31.7266 12.3204 31.8164 12.5625C32.0391 13.1602 32.3945 13.8399 32.6797 14.3946C32.8242 14.6758 32.9844 14.9688 33.168 15.2188C33.2812 15.3711 33.4727 15.4415 33.5039 15.6758C33.3164 15.9415 33.3047 16.3516 33.1992 16.6875C32.7227 18.1915 32.9023 20.0625 33.5938 21.1719C33.8086 21.5157 34.3125 22.2461 35 21.9688C35.6016 21.7227 35.4688 20.961 35.6406 20.2852C35.6797 20.1368 35.6562 20.0235 35.7344 19.9219V19.9532C35.9141 20.3204 36.0977 20.6875 36.2812 21.0508C36.6914 21.7071 37.4141 22.3907 38.0234 22.8555C38.3398 23.0938 38.5898 23.5079 39 23.6485V23.6172H38.9688C38.8906 23.4922 38.7656 23.4415 38.6641 23.3438C38.4258 23.1094 38.1602 22.8165 37.9648 22.5469C37.4062 21.793 36.9141 20.9649 36.4688 20.1055C36.2539 19.6954 36.0664 19.2422 35.8867 18.8243C35.8164 18.6602 35.8164 18.418 35.6719 18.3321C35.4727 18.6407 35.1836 18.8868 35.0312 19.25C34.7891 19.8282 34.7539 20.5352 34.6641 21.2657C34.6094 21.2852 34.6328 21.2696 34.6055 21.2969C34.1797 21.1915 34.0273 20.754 33.8711 20.379C33.4727 19.4297 33.3945 17.8985 33.75 16.8086C33.8398 16.5235 34.25 15.6329 34.0859 15.3711C34.0078 15.1094 33.7422 14.961 33.5977 14.7618C33.4141 14.5157 33.2344 14.1915 33.1094 13.9063C32.7812 13.1641 32.4727 12.3047 32.125 11.5547C31.9609 11.1954 31.6836 10.836 31.4531 10.5157C31.1992 10.1641 30.918 9.9063 30.7188 9.47661C30.6523 9.32817 30.5547 9.08598 30.6602 8.92973C30.6914 8.82427 30.7383 8.7813 30.8438 8.74614C31.0195 8.60942 31.5117 8.78911 31.6992 8.86723C32.1875 9.07036 32.5977 9.26567 33.0117 9.53911C33.2109 9.67192 33.4102 9.92583 33.6523 10H33.9258C34.3594 10.0977 34.8398 10.0274 35.2383 10.1524C35.9492 10.3672 36.5859 10.7032 37.1602 11.0665C38.9219 12.1758 40.3633 13.7579 41.3438 15.6446C41.5039 15.9493 41.5742 16.2422 41.7148 16.5625C41.9922 17.211 42.3477 17.8829 42.6289 18.5157C42.9063 19.1524 43.1797 19.7891 43.5742 20.3165C43.7812 20.5938 44.5859 20.7461 44.9492 20.8985C45.2031 21.0079 45.625 21.1211 45.8633 21.2657C46.3281 21.543 46.7734 21.875 47.207 22.1836C47.4258 22.336 48.0898 22.668 48.125 22.9454C47.0508 22.918 46.2305 23.0157 45.5312 23.3125C45.332 23.3985 45.0117 23.3985 44.9805 23.6485C45.0859 23.7618 45.1055 23.9336 45.1914 24.0743C45.3594 24.3438 45.6406 24.7071 45.8945 24.8985C46.1719 25.1055 46.4531 25.3282 46.75 25.5118C47.2734 25.8282 47.8594 26.0118 48.3672 26.3321C48.6641 26.5235 48.9648 26.7618 49.2539 26.9727C49.3984 27.0821 49.4922 27.2461 49.6797 27.3125V27.2813C49.582 27.1563 49.5586 26.9844 49.4688 26.8555L49.0664 26.4532C48.6797 25.9415 48.1875 25.4883 47.6641 25.1133C47.2461 24.8125 46.3125 24.4063 46.1406 23.9219L46.1094 23.8907C46.4023 23.8594 46.75 23.75 47.0234 23.6758C47.4844 23.5547 47.8906 23.586 48.3633 23.4649C48.5781 23.4024 48.793 23.3399 49.0078 23.2813V23.1563C48.7695 22.9141 48.5977 22.586 48.3359 22.3633C47.6523 21.7813 46.9062 21.1993 46.1367 20.7149C45.7109 20.4454 45.1836 20.2696 44.7344 20.043C44.582 19.9649 44.3164 19.9258 44.2148 19.7969C43.9766 19.4961 43.8477 19.1133 43.6641 18.7618C43.2812 18.0235 42.9063 17.2188 42.5664 16.4415C42.3359 15.9141 42.1836 15.3907 41.8945 14.9141C40.5078 12.6368 39.0156 11.2579 36.7031 9.9063C36.2109 9.61723 35.6211 9.50786 34.9961 9.35942C34.6562 9.33598 34.3242 9.31645 33.9844 9.29692C33.7812 9.21098 33.5664 8.96098 33.375 8.83598C32.8945 8.5352 31.9492 8.01176 31.168 8.00005ZM34.4766 11.3125C34.2539 11.3086 34.0938 11.3399 33.9258 11.375V11.4063H33.957C34.0625 11.625 34.2539 11.7657 34.3867 11.9532C34.4883 12.168 34.5859 12.3829 34.6875 12.5977L34.7188 12.5665C34.9062 12.4336 34.9961 12.2188 34.9961 11.8946C34.918 11.8165 34.9062 11.7149 34.8438 11.6211C34.7539 11.4922 34.5859 11.4219 34.4766 11.3125ZM1.86719 23.9961C1.56641 24.0079 1.23828 24.0665 0.882813 24.1797C0.289063 24.3594 -0.00390625 24.7149 -0.00390625 25.4375V33H2V25.6211L4.77734 31.9297C5.12109 32.7149 5.58984 32.9961 6.50781 32.9961C7.42969 32.9961 7.87891 32.7149 8.22266 31.9297L11 25.7813V33H13V25.4375C13 24.7149 12.7109 24.3594 12.1133 24.1797C10.6914 23.7305 9.73438 24.1172 9.30469 25.0899L6.45312 31.504L3.69531 25.0899C3.38281 24.3594 2.75781 23.961 1.86719 23.9961ZM26.2461 24C25.457 24 23 24.0938 23 26V27.2344C23 28.1094 23.7695 28.8243 25.4375 29C25.625 29.0118 25.8125 29.0274 26 29.0274C26 29.0274 27.9453 28.9883 28 29C29.125 29 29 29.875 29 30V31C29 31.1368 28.9688 32 27.9883 32H23V33H28.0078C28.6641 33 29.3008 32.8633 29.8086 32.625C30.6523 32.2383 31 31.7149 31 31.0274V29.5977C31 28.0625 29.0938 28 28 28H26C25.2148 28 25.0938 27.5235 25 27V26C25.0938 25.6016 25.2695 25.0625 25.9648 25H31V24H26.2461ZM33.9805 24C32.5039 24.2032 31.9844 24.9375 31.9844 26V31C31.9844 31.9727 32.5273 32.5586 33.6445 32.8633C34.0195 32.9688 34.3594 33.0118 34.6797 33.0118L36.9062 33H38.2148L39.3281 34H41.5781L40.0312 32.6055C40.7578 32.3047 40.9844 31.8438 40.9844 30.9805V26C40.9844 24.9375 40.293 24.2032 38.8164 24H33.9805ZM42 24V30.9571C42 32.1641 42.6836 32.8438 44.4922 32.9805C44.6602 32.9883 44.832 33 45 33H50V32H45.3789C44.3477 32 44 31.5665 44 30.9493V24H42ZM35.1719 25H37.7461C38.4258 25 38.8828 25.5469 38.9844 26C38.9844 26 39 30.6563 39 31C39 31.3438 38.8086 31.5 38.8086 31.5L38.2656 31H36L37.1133 32H35.1719C34.4766 32 34.0859 31.4844 33.9844 31V26.1016C33.9844 25.5704 34.3906 25 35.1719 25ZM14 27C14.0391 27.0391 14 31.2618 14 31.3438C14.0156 32.2188 15.125 32.9844 16.8633 33H20V33.0665C20 33.254 20.1367 33.879 19 34C18.9883 34 14.0117 34 14 34V35H19.2148C20.0977 34.9727 22.0117 34.7735 22 33.2422C22 33.2149 22.0078 27 22 27H20V32C19.9688 32 17.5234 32.0079 17.0312 32C16.0664 31.9844 15.9844 31.4336 16 31.2227V27H14Z" fill="#F49D09"/>
</g>
<defs>
<clipPath id="clip0_11_93">
<rect width="50" height="50" fill="white"/>
</clipPath>
</defs>
</svg>
