<svg width="46" height="46" viewBox="0 0 46 46" fill="none" xmlns="http://www.w3.org/2000/svg">
<path d="M23 0C10.3093 0 0 10.3093 0 23C0 35.6907 10.3093 46 23 46C35.6907 46 46 35.6907 46 23C46 10.3093 35.6907 0 23 0ZM23 2C34.6098 2 44 11.3902 44 23C44 34.6098 34.6098 44 23 44C11.3902 44 2 34.6098 2 23C2 11.3902 11.3902 2 23 2ZM32.0879 12.0352C31.4039 12.0352 30.6353 12.1936 29.7363 12.5176C28.3403 13.0206 11.9207 19.9922 10.0527 20.7852C8.98473 21.2392 6.99609 22.0837 6.99609 24.0977C6.99609 25.4327 7.77836 26.3875 9.31836 26.9375C10.1464 27.2325 12.1129 27.8286 13.2539 28.1426C13.7379 28.2756 14.2523 28.3438 14.7812 28.3438C15.8162 28.3438 16.8578 28.0859 17.6738 27.6309C17.6668 27.7989 17.6714 27.9687 17.6914 28.1387C17.8144 29.1887 18.4619 30.1762 19.4219 30.7812C20.0499 31.1772 25.1793 34.6142 25.9453 35.1602C27.0213 35.9292 28.2108 36.3359 29.3828 36.3359C31.6228 36.3359 32.3743 34.0231 32.7363 32.9121C33.2613 31.2991 35.2272 18.1821 35.4492 15.8691C35.6002 14.2841 34.9396 12.979 33.6816 12.377C33.2106 12.15 32.6729 12.0352 32.0879 12.0352ZM32.0879 14.0352C32.3629 14.0352 32.6084 14.0806 32.8164 14.1816C33.2894 14.4086 33.53 14.9147 33.457 15.6797C33.215 18.2027 31.2539 31.009 30.8359 32.293C30.4779 33.391 30.1008 34.3359 29.3828 34.3359C28.6648 34.3359 27.8804 34.0842 27.1074 33.5312C26.3344 32.9793 21.2013 29.5369 20.4883 29.0879C19.8633 28.6939 19.2018 27.7117 20.1328 26.7617C20.8998 25.9797 26.7178 20.3329 27.2148 19.8359C27.5848 19.4649 27.4118 19.0176 27.0488 19.0176C26.9238 19.0176 26.7741 19.0703 26.6191 19.1973C26.0111 19.6943 17.5348 25.3663 16.8008 25.8223C16.3148 26.1243 15.5623 26.3418 14.7812 26.3418C14.4482 26.3418 14.1111 26.3019 13.7871 26.2129C12.6591 25.9019 10.7502 25.3227 9.99219 25.0527C9.26319 24.7927 8.99805 24.5437 8.99805 24.0977C8.99805 23.4637 9.89294 23.026 10.8359 22.625C11.8319 22.202 29.0661 14.8834 30.4141 14.3984C31.0381 14.1724 31.6089 14.0352 32.0879 14.0352Z" fill="#F49D09"/>
</svg>
