<svg width="47" height="47" viewBox="0 0 47 47" fill="none" xmlns="http://www.w3.org/2000/svg">
<path d="M16.8016 6.39434L16.8674 6.35888L16.92 6.3057L21.5763 1.59769C21.5766 1.5974 21.5769 1.5971 21.5772 1.5968C22.1045 1.06992 22.7893 0.8125 23.5001 0.8125C24.2112 0.8125 24.8964 1.07021 25.4239 1.59769L45.4024 21.5762C46.4627 22.6366 46.4614 24.3702 45.4033 25.4229L45.4024 25.4238L25.4248 45.4014C25.4245 45.4016 25.4243 45.4019 25.4241 45.4021C24.3642 46.4558 22.636 46.4558 21.576 45.4021C21.5758 45.4019 21.5756 45.4016 21.5754 45.4014L1.59775 25.4238C0.537384 24.3634 0.538701 22.6298 1.59684 21.5771L1.59775 21.5762L16.297 6.87699L16.3342 6.83974L16.3629 6.79553C16.4711 6.62879 16.6209 6.49161 16.8016 6.39434ZM23.8536 3.3232L23.5001 2.96965L23.1465 3.3232L19.3682 7.10152L19.0146 7.45508L19.3682 7.80863L22.2666 10.7071L22.4732 10.9136L22.7546 10.8351C22.9734 10.774 23.2218 10.75 23.5001 10.75C25.0549 10.75 26.3126 12.0077 26.3126 13.5625C26.3126 13.8096 26.2845 14.0436 26.2261 14.2611L26.1513 14.54L26.3555 14.7442L32.2559 20.6446L32.4601 20.8488L32.739 20.7739C32.9564 20.7156 33.1905 20.6875 33.4376 20.6875C34.9924 20.6875 36.2501 21.9452 36.2501 23.5C36.2501 25.0548 34.9924 26.3125 33.4376 26.3125C31.8828 26.3125 30.6251 25.0548 30.6251 23.5C30.6251 23.2529 30.6532 23.0189 30.7115 22.8014L30.7863 22.5225L30.5821 22.3183L25.5099 17.2461L24.6563 16.3925V17.5996V30.5908V30.8784L24.9049 31.023C25.7515 31.5155 26.3126 32.4047 26.3126 33.4375C26.3126 34.9923 25.0549 36.25 23.5001 36.25C21.9453 36.25 20.6876 34.9923 20.6876 33.4375C20.6876 32.4047 21.2486 31.5155 22.0952 31.023L22.3438 30.8784V30.5908V16.4092V16.1216L22.0952 15.977C21.2486 15.4845 20.6876 14.5953 20.6876 13.5625C20.6876 13.2842 20.7116 13.0359 20.7727 12.817L20.8512 12.5356L20.6446 12.3291L17.7462 9.43063L17.3926 9.07707L17.0391 9.43063L3.32326 23.1464L2.96971 23.5L3.32326 23.8536L23.1465 43.6768L23.5001 44.0303L23.8536 43.6768L43.6769 23.8536L44.0304 23.5L43.6769 23.1464L23.8536 3.3232Z" fill="#F49D09" stroke="black"/>
</svg>
